PathFileType	4	(X/Y/Z)	CPRIT_Patient3_L_KneeIso_Processed.TRC
DataRate	CameraRate	NumFrames	NumMarkers	Units	OrigDataRate	OrigDataStartFrame	OrigNumFrames
150.195058517555	150.195058517555	7	36	m	150.195058517555	386	       771
Frame#	Time	R.Heel			R.Midfoot.Superior			R.Midfoot.Lateral			R.Toe			L.Heel			L.Midfoot.Superior			L.Midfoot.Lateral			L.Toe			R.Shank.Superior			R.Shank.Inferior			R.Shank.Lateral			R.Shank.Posterior			L.Shank.Superior			L.Shank.Inferior			L.Shank.Posterior			L.Shank.Lateral			R.Patella			L.Patella			R.Thigh.Superior			R.Thigh.Lateral			R.Thigh.Inferior			L.Thigh.Superior			L.Thigh.Inferior			L.Thigh.Lateral			L.Asis			R.Asis			R.Shoulder			L.Shoulder			C7			J.Notch			Sternum			Thoracic			L.Elbow			L.Wrist			R.Elbow			R.Wrist			
		X1	Y1	Z1	X2	Y2	Z2	X3	Y3	Z3	X4	Y4	Z4	X5	Y5	Z5	X6	Y6	Z6	X7	Y7	Z7	X8	Y8	Z8	X9	Y9	Z9	X10	Y10	Z10	X11	Y11	Z11	X12	Y12	Z12	X13	Y13	Z13	X14	Y14	Z14	X15	Y15	Z15	X16	Y16	Z16	X17	Y17	Z17	X18	Y18	Z18	X19	Y19	Z19	X20	Y20	Z20	X21	Y21	Z21	X22	Y22	Z22	X23	Y23	Z23	X24	Y24	Z24	X25	Y25	Z25	X26	Y26	Z26	X27	Y27	Z27	X28	Y28	Z28	X29	Y29	Z29	X30	Y30	Z30	X31	Y31	Z31	X32	Y32	Z32	X33	Y33	Z33	X34	Y34	Z34	X35	Y35	Z35	X36	Y36	Z36	

386	2.563333333333	0.480667433132	0.049385337151	0.082903926663	0.647373582153	0.098024566879	0.116313370866	0.549776418556	0.038052399435	0.147879975486	0.761984281071	0.054591827676	0.140158859451	0.721588392939	0.052655229179	-0.066773266083	0.865005638821	0.157149691321	-0.091824095740	0.798379560797	0.065482994862	-0.126728840030	0.988654198686	0.155619034643	-0.101220260837	0.606896911848	0.357779041149	0.148723722063	0.597893903014	0.238137063703	0.138158280478	0.528118260605	0.289913828254	0.194544033151	0.468524028775	0.356410367958	0.139467460469	0.766574900138	0.409706208995	-0.089285412716	0.784943544553	0.282057674330	-0.086673419949	0.633031019849	0.355110729979	-0.095967931446	0.720777650198	0.314670343050	-0.144647002251	0.635639273380	0.466269473901	0.135862129392	0.760343918961	0.529915862135	-0.073886522036	0.689165413241	0.776097883863	0.166584910257	0.607236599488	0.706480477595	0.222174117733	0.675416108208	0.617489261830	0.133925616241	0.698395364177	0.820549162756	-0.096764754006	0.735769813196	0.671108789528	-0.076849094142	0.627652227309	0.729733392766	-0.149660345418	0.648386201302	0.956394820548	-0.074893297515	0.680127190252	0.936991254384	0.158194666359	0.571352531331	1.445384349271	0.229998780006	0.596067524032	1.435658158079	-0.098967632481	0.541063280743	1.480089728389	0.082677038763	0.661389506504	1.382537831867	0.069699563005	0.719391800328	1.203002667890	0.056295501427	0.458941125382	1.323849527478	0.073283866007	0.546149518407	1.173269034337	-0.276030186270	0.614867779510	0.988416186946	-0.432612005482	0.552427335100	1.140949555220	0.388091757611	0.762874905903	0.990451099404	0.414299555061	
387	2.569991341991	0.480667458057	0.049385323057	0.082904699831	0.647373280558	0.098026237574	0.116315789645	0.549776494279	0.038052055265	0.147880606191	0.761983856301	0.054593252891	0.140159245996	0.721147730759	0.052615591443	-0.066787582094	0.864616918642	0.157020318194	-0.091810222449	0.797949963890	0.065405261042	-0.126737145805	0.988273012284	0.155418359028	-0.101186261574	0.606859080460	0.357784722985	0.148730821568	0.597871336775	0.238144869415	0.138167489524	0.528091728807	0.289909020303	0.194555094881	0.468487107826	0.356399318247	0.139477568902	0.766357542961	0.409640683305	-0.089260809480	0.784648739043	0.281979164890	-0.086673459968	0.632790014538	0.355125741959	-0.095972702494	0.720514083534	0.314637041545	-0.144639479136	0.635588882261	0.466274045469	0.135869299456	0.760203372609	0.529850920460	-0.073852952071	0.689100042653	0.776093256872	0.166588417359	0.607184133950	0.706480835871	0.222189122973	0.675349556362	0.617488050878	0.133931426211	0.698292775204	0.820537695935	-0.096748548349	0.735671113386	0.671076946137	-0.076842881194	0.627544648581	0.729733648498	-0.149632710193	0.648293503904	0.956379040643	-0.074897694389	0.680044347806	0.936969954369	0.158208643712	0.571574122990	1.445421025150	0.229977496452	0.596183358791	1.435653540014	-0.098974218933	0.541249721019	1.480113354161	0.082657732204	0.661518750724	1.382496868178	0.069662008138	0.719435829594	1.202949309749	0.056262718124	0.459032590577	1.323915453909	0.073315205410	0.546167797492	1.173280906981	-0.276044870540	0.614865004790	0.988417699490	-0.432618137082	0.552510657936	1.141031837323	0.388147204403	0.762892280727	0.990451537738	0.414302331369	
388	2.576649350649	0.480667483243	0.049385311808	0.082905455004	0.647373105378	0.098027694891	0.116318252392	0.549776554235	0.038051727544	0.147881148980	0.761983582442	0.054594446965	0.140159538029	0.720682909611	0.052576151413	-0.066814267710	0.864212845072	0.156880896899	-0.091801992910	0.797499286890	0.065322448002	-0.126755537054	0.987877162633	0.155198371299	-0.101156837687	0.606822409037	0.357790111753	0.148737373861	0.597849699409	0.238152244376	0.138176362451	0.528066194117	0.289903997395	0.194565627748	0.468451154304	0.356388107559	0.139487519599	0.766140041443	0.409572380973	-0.089239447407	0.784344698883	0.281895310613	-0.086681964815	0.632552473780	0.355145887631	-0.095981022544	0.720246440690	0.314604214028	-0.144639161048	0.635539502670	0.466278610962	0.135875222138	0.760071044504	0.529782153890	-0.073820441933	0.689034638069	0.776088966780	0.166592820445	0.607131140426	0.706481146800	0.222204064941	0.675284159275	0.617487162458	0.133938163707	0.698192216189	0.820523890048	-0.096733524479	0.735575490375	0.671042174802	-0.076840361117	0.627440565131	0.729732038412	-0.149608105812	0.648203381259	0.956364233988	-0.074900815130	0.679967533549	0.936952036777	0.158220174413	0.571791156501	1.445456346609	0.229957887259	0.596295638069	1.435649042179	-0.098981696847	0.541432540237	1.480136507969	0.082638389559	0.661644440263	1.382456576970	0.069625699708	0.719477682600	1.202897046511	0.056232232589	0.459120643440	1.323980211304	0.073346935560	0.546183692367	1.173292087297	-0.276060043255	0.614862112661	0.988419080605	-0.432623858529	0.552590735531	1.141112242174	0.388203091071	0.762908005413	0.990452089064	0.414305809790	
389	2.583307359307	0.480667510563	0.049385306685	0.082906184805	0.647373046477	0.098028934139	0.116320716794	0.549776599603	0.038051420153	0.147881607537	0.761983463411	0.054595374436	0.140159685463	0.720193145601	0.052536448113	-0.066852117284	0.863792443641	0.156731240724	-0.091799542737	0.797026453752	0.065234026903	-0.126783242445	0.987465550059	0.154958997312	-0.101132760273	0.606787114160	0.357795161035	0.148743321477	0.597829110308	0.238159131893	0.138184778851	0.528041824580	0.289898785598	0.194575539149	0.468416391543	0.356376817789	0.139497261422	0.765921653453	0.409500970128	-0.089221403559	0.784030426420	0.281805573336	-0.086698750579	0.632317450581	0.355170865863	-0.095992082719	0.719973622175	0.314571325153	-0.144645608437	0.635491427169	0.466283157859	0.135879781699	0.759946559192	0.529709148539	-0.073789149226	0.688969595265	0.776084957316	0.166598016103	0.607077923331	0.706481396919	0.222218836036	0.675220229866	0.617486512206	0.133945683226	0.698093567975	0.820507171964	-0.096720291008	0.735482416157	0.671003762028	-0.076842067967	0.627339317219	0.729728000186	-0.149586768431	0.648116235137	0.956350315502	-0.074902739646	0.679896640969	0.936937183581	0.158229473812	0.572002782774	1.445490245650	0.229940089027	0.596404317487	1.435644664814	-0.098989935691	0.541611323318	1.480159167465	0.082619074873	0.661766358722	1.382417287901	0.069590901224	0.719517621430	1.202846211953	0.056204341054	0.459205224744	1.324043543635	0.073378846945	0.546197537970	1.173302554268	-0.276075538605	0.614859171597	0.988420308778	-0.432629063648	0.552667134473	1.141190354785	0.388258998203	0.762921973168	0.990452743922	0.414309934893	
390	2.589965367965	0.480667544231	0.049385309996	0.082906883357	0.647373090772	0.098029956657	0.116323142304	0.549776632785	0.038051134482	0.147881987668	0.761983498666	0.054596006170	0.140159646977	0.719677368905	0.052496032201	-0.066899900922	0.863354543073	0.156571095905	-0.091802915720	0.796530138683	0.065139455531	-0.126819420965	0.987036846121	0.154699983236	-0.101114568808	0.606753393721	0.357799824026	0.148748609721	0.597809673678	0.238165486338	0.138192626518	0.528018773708	0.289893413191	0.194584741108	0.468383028832	0.356365530188	0.139506746825	0.765701663244	0.409426092016	-0.089206664724	0.783704858973	0.281709379119	-0.086723492925	0.632083877011	0.355200460083	-0.096005145783	0.719694509324	0.314537860421	-0.144658332027	0.635444933467	0.466287677009	0.135882888264	0.759829665443	0.529631475046	-0.073759197907	0.688905307740	0.776081180395	0.166603853734	0.607024813635	0.706481570657	0.222233311860	0.675158066956	0.617486025114	0.133953799868	0.697996705245	0.820487039938	-0.096709419734	0.735391487714	0.670961050094	-0.076848475626	0.627240291696	0.729720993788	-0.149568880693	0.648032398799	0.956337208388	-0.074903577414	0.679831474782	0.936925056542	0.158236772991	0.572208222675	1.445522670705	0.229924221308	0.596509395656	1.435640407290	-0.098998762495	0.541785695665	1.480181318240	0.082599854169	0.661884320449	1.382379294586	0.069557859926	0.719555914972	1.202797114294	0.056179295358	0.459286307520	1.324105218378	0.073410720568	0.546209708457	1.173312293627	-0.276091154265	0.614856248818	0.988421360726	-0.432633641809	0.552739455235	1.141265765909	0.388314499379	0.762934100207	0.990453490317	0.414314639408	
391	2.596623376623	0.480667589562	0.049385323873	0.082907545558	0.647373222741	0.098030767172	0.116325488593	0.549776656892	0.038050870115	0.147882296162	0.761983683279	0.054596320830	0.140159390872	0.719134183617	0.052454477918	-0.066956390972	0.862897756086	0.156400121972	-0.091812059830	0.796008733553	0.065038180264	-0.126863176624	0.986589474009	0.154420862102	-0.101102562873	0.606721424040	0.357804055201	0.148753187482	0.597791477182	0.238171270889	0.138199801893	0.527997178202	0.289887910402	0.194593154188	0.468351257612	0.356354323901	0.139515933855	0.765479403892	0.409347359904	-0.089195121562	0.783366875342	0.281606122745	-0.086755727327	0.631850588658	0.355234558231	-0.096019559763	0.719407978633	0.314503334179	-0.144676800408	0.635400280637	0.466292162102	0.135884483360	0.759720269153	0.529548690004	-0.073730675107	0.688842161989	0.776077597298	0.166610140218	0.606972164369	0.706481651360	0.222247354965	0.675097952153	0.617485640245	0.133962296501	0.697901505668	0.820463070307	-0.096701432283	0.735302453396	0.670913451164	-0.076859979609	0.627142948339	0.729710505876	-0.149554570543	0.647952139860	0.956324842784	-0.074903460919	0.679771772256	0.936915306401	0.158242306290	0.572406780605	1.445553580608	0.229910386106	0.596610913176	1.435636271374	-0.099007971403	0.541955323099	1.480202953308	0.082580802320	0.661998172255	1.382342847575	0.069526805471	0.719592834065	1.202750032569	0.056157297467	0.459363896887	1.324165029136	0.073442334671	0.546220606469	1.173321299571	-0.276106657226	0.614853409292	0.988422213371	-0.432637480107	0.552807339323	1.141338075197	0.388369169227	0.762944328623	0.990454315228	0.414319845937	
392	2.603281385281	0.480667651738	0.049385351046	0.082908166047	0.647373424970	0.098031371929	0.116327714034	0.549776675197	0.038050625754	0.147882539404	0.761984008034	0.054596306395	0.140158895433	0.718561832767	0.052411395428	-0.067020384981	0.862420460860	0.156217872542	-0.091826824834	0.795460317628	0.064929638440	-0.126913572602	0.986121591116	0.154120924607	-0.101096802904	0.606691357494	0.357807812540	0.148757007647	0.597774591245	0.238176455723	0.138206210051	0.527977156262	0.289882309106	0.194600710667	0.468321248383	0.356343274728	0.139524787675	0.765254276860	0.409264357554	-0.089186567140	0.783015301175	0.281495173893	-0.086794853922	0.631616346897	0.355273169444	-0.096034767381	0.719112912104	0.314467295937	-0.144700447007	0.635357705355	0.466296608429	0.135884543803	0.759618460331	0.529460337889	-0.073703630956	0.688780532090	0.776074179469	0.166616646702	0.606920344320	0.706481623013	0.222260819680	0.675040146856	0.617485314191	0.133970931354	0.697807858273	0.820434921229	-0.096696792565	0.735215235523	0.670860461201	-0.076876883465	0.627046843675	0.729696053694	-0.149543911843	0.647875664878	0.956313154236	-0.074902540190	0.679717223000	0.936907580637	0.158246301019	0.572597855509	1.445582938967	0.229898667649	0.596708949668	1.435632263351	-0.099017334452	0.542119912207	1.480224072020	0.082562006210	0.662107795042	1.382308150648	0.069497947721	0.719628646299	1.202705212981	0.056138495056	0.459438029370	1.324222797284	0.073473471660	0.546230650240	1.173329576278	-0.276121792991	0.614850714345	0.988422846219	-0.432640467412	0.552870475301	1.141406895703	0.388422592284	0.762952628163	0.990455206324	0.414325468933	
